<svg width="25" height="25" viewBox="0 0 25 25" fill="none" xmlns="http://www.w3.org/2000/svg">
<path d="M17.1875 10C14.5312 10 12.5 8.375 12.5 6.25V0L4.6875 0C2.03125 0 0 1.625 0 3.75L0 21.25C0 23.375 2.03125 25 4.6875 25H20.3125C22.9688 25 25 23.375 25 21.25V10H17.1875ZM7.8125 7.5H9.375C10.3125 7.5 10.9375 8 10.9375 8.75C10.9375 9.5 10.3125 10 9.375 10H7.8125C6.875 10 6.25 9.5 6.25 8.75C6.25 8 6.875 7.5 7.8125 7.5ZM17.1875 20H7.8125C6.875 20 6.25 19.5 6.25 18.75C6.25 18 6.875 17.5 7.8125 17.5H17.1875C18.125 17.5 18.75 18 18.75 18.75C18.75 19.5 18.125 20 17.1875 20ZM17.1875 15H7.8125C6.875 15 6.25 14.5 6.25 13.75C6.25 13 6.875 12.5 7.8125 12.5H17.1875C18.125 12.5 18.75 13 18.75 13.75C18.75 14.5 18.125 15 17.1875 15ZM17.1875 7.5H24.0625L15.625 0.75V6.25C15.625 7 16.25 7.5 17.1875 7.5Z" fill="#F1F1F1"/>
</svg>
