<svg width="25" height="25" viewBox="0 0 25 25" fill="none" xmlns="http://www.w3.org/2000/svg">
<path d="M12.5127 12.5C16.2723 12.5 19.2263 9.75 19.2263 6.25C19.2263 2.75 16.2723 0 12.5127 0C8.75311 0 5.79913 2.75 5.79913 6.25C5.79913 9.75 8.75311 12.5 12.5127 12.5ZM25 23.5C23.2545 17.125 16.2723 13.125 9.42447 14.75C4.85923 15.875 1.23389 19.125 0.0254446 23.5C-0.108827 24.125 0.293988 24.875 1.09962 25C1.23389 25 1.36816 25 1.36816 25H23.6573C24.4629 25 25 24.5 25 23.75C25 23.625 25 23.5 25 23.5Z" fill="#F1F1F1"/>
</svg>
