<svg width="25" height="25" viewBox="0 0 25 25" fill="none" xmlns="http://www.w3.org/2000/svg">
<path d="M22.25 8.47222L20.5 2.77778C20 1.11111 18.5 0 17 0L8 0C6.5 0 5 1.11111 4.5 2.91667L2.75 8.47222C1.125 9.02778 0 10.5556 0 12.5L0 18.0556C0 19.8611 1 21.3889 2.5 21.9444V23.6111C2.5 24.4444 3 25 3.75 25C4.5 25 5 24.4444 5 23.6111V22.2222H20V23.6111C20 24.4444 20.5 25 21.25 25C22 25 22.5 24.4444 22.5 23.6111V21.9444C24 21.3889 25 19.8611 25 18.0556V12.5C25 10.5556 23.875 9.02778 22.25 8.47222ZM6.875 3.75C7 3.19444 7.5 2.77778 8 2.77778H16.875C17.375 2.77778 17.875 3.19444 18 3.75L19.5 8.33333H5.5L6.875 3.75ZM6.25 16.6667C5.5 16.6667 5 16.1111 5 15.2778C5 14.4444 5.5 13.8889 6.25 13.8889C7 13.8889 7.5 14.4444 7.5 15.2778C7.5 16.1111 7 16.6667 6.25 16.6667ZM13.75 16.6667H11.25C10.5 16.6667 10 16.1111 10 15.2778C10 14.4444 10.5 13.8889 11.25 13.8889H13.75C14.5 13.8889 15 14.4444 15 15.2778C15 16.1111 14.5 16.6667 13.75 16.6667ZM18.75 16.6667C18 16.6667 17.5 16.1111 17.5 15.2778C17.5 14.4444 18 13.8889 18.75 13.8889C19.5 13.8889 20 14.4444 20 15.2778C20 16.1111 19.5 16.6667 18.75 16.6667Z" fill="#000530"/>
</svg>
